<svg id="Bold" enable-background="new 0 0 24 24" height="512" viewBox="0 0 24 24" width="512" xmlns="http://www.w3.org/2000/svg"><path d="m12 0c-6.62 0-12 5.38-12 12s5.38 12 12 12c.92 0 1.82-.1 2.69-.31-1.49-.43-2.77-1.33-3.69-2.53v.49c-.86-.58-1.68-1.86-2.26-3.67.28-.04.57-.08.86-.11-.07-.36-.1-.74-.1-1.12 0-.3.02-.6.06-.89-.45.05-.89.11-1.32.18-.18-.94-.3-1.96-.35-3.06h2.68c.59-.99 1.43-1.83 2.43-2.42v-2.33c.95-.04 1.88-.12 2.76-.27.1.5.18 1.03.23 1.58.25-.03.5-.04.76-.04.43 0 .86.04 1.27.12-.07-.72-.17-1.41-.3-2.07.98-.26 1.88-.58 2.68-.96.83 1.3 1.39 2.79 1.55 4.39h-.82c1.21.91 2.13 2.21 2.56 3.71.21-.87.31-1.77.31-2.69 0-6.62-5.38-12-12-12zm-8.4 6.59c.8.38 1.7.7 2.68.96-.21 1.07-.34 2.22-.39 3.43h-3.84c.16-1.6.72-3.09 1.55-4.39zm-1.55 6.39h3.84c.05 1.23.18 2.39.39 3.47-.98.26-1.88.58-2.68.96-.84-1.3-1.39-2.81-1.55-4.43zm5.89 8.15c-1.15-.51-2.18-1.23-3.05-2.11.57-.25 1.2-.46 1.87-.63.32 1.03.72 1.96 1.18 2.74zm-1.18-15.52c-.67-.17-1.3-.38-1.87-.63.87-.88 1.9-1.6 3.05-2.11-.46.78-.86 1.71-1.18 2.74zm4.24 5.37h-3.11c.05-1.08.17-2.09.35-3.02.88.15 1.81.23 2.76.27zm0-4.75c-.78-.03-1.53-.1-2.26-.21.58-1.81 1.4-3.09 2.26-3.67zm2 0v-3.88c.86.58 1.68 1.86 2.26 3.67-.73.11-1.48.18-2.26.21zm4.24-.62c-.32-1.03-.72-1.96-1.18-2.74 1.15.51 2.18 1.23 3.05 2.11-.57.25-1.2.46-1.87.63z"/><path d="m23.707 22.293-2.54-2.54c.524-.791.833-1.736.833-2.753 0-2.757-2.243-5-5-5s-5 2.243-5 5 2.243 5 5 5c1.017 0 1.962-.309 2.753-.833l2.54 2.54c.391.391 1.023.391 1.414 0s.391-1.023 0-1.414z"/></svg>